<svg width="165" height="120" viewBox="0 0 165 120" fill="none" xmlns="http://www.w3.org/2000/svg">
<rect width="165" height="120" fill="#D6D6D6"/>
<path opacity="0.5" d="M102.167 52.8333V48.6128C102.167 43.5682 102.167 41.0439 100.691 39.4052C100.556 39.2539 100.413 39.11 100.262 38.9739C98.6234 37.5 96.0991 37.5 91.0545 37.5H90.3377C88.1277 37.5 87.0218 37.5 85.9907 37.2068C85.4248 37.045 84.8794 36.8186 84.3653 36.5321C83.43 36.0127 82.648 35.2288 81.084 33.6667L80.0298 32.6125C79.5047 32.0873 79.244 31.8267 78.968 31.5967C77.7809 30.6127 76.3248 30.0096 74.7897 29.8659C74.4332 29.8333 74.0613 29.8333 73.3215 29.8333C71.6291 29.8333 70.7838 29.8333 70.0785 29.9675C68.564 30.2535 67.1709 30.9894 66.0809 32.079C64.9909 33.1687 64.2546 34.5615 63.9682 36.0759C63.834 36.7832 63.834 37.6303 63.834 39.3208V52.8333C63.834 60.0611 63.834 63.6759 66.0803 65.9203C68.3267 68.1648 71.9396 68.1667 79.1673 68.1667H86.834C94.0617 68.1667 97.6766 68.1667 99.921 65.9203C102.165 63.674 102.167 60.0611 102.167 52.8333Z" fill="#898989"/>
<path d="M79.1099 47.9842C79.3794 47.715 79.7448 47.5638 80.1257 47.5638C80.5066 47.5638 80.872 47.715 81.1415 47.9842L83.0007 49.8433L84.8599 47.9842C84.9915 47.8429 85.1502 47.7297 85.3265 47.6511C85.5028 47.5725 85.6932 47.5303 85.8862 47.5269C86.0792 47.5235 86.2709 47.559 86.4499 47.6313C86.6289 47.7036 86.7915 47.8112 86.928 47.9477C87.0645 48.0842 87.1721 48.2468 87.2444 48.4258C87.3167 48.6048 87.3522 48.7965 87.3488 48.9895C87.3454 49.1825 87.3032 49.3729 87.2246 49.5492C87.146 49.7255 87.0328 49.8842 86.8915 50.0158L85.0324 51.875L86.8915 53.7342C87.0328 53.8658 87.146 54.0245 87.2246 54.2008C87.3032 54.3771 87.3454 54.5675 87.3488 54.7605C87.3522 54.9535 87.3167 55.1452 87.2444 55.3242C87.1721 55.5032 87.0645 55.6658 86.928 55.8023C86.7915 55.9388 86.6289 56.0464 86.4499 56.1187C86.2709 56.191 86.0792 56.2265 85.8862 56.2231C85.6932 56.2197 85.5028 56.1775 85.3265 56.0989C85.1502 56.0203 84.9915 55.9071 84.8599 55.7658L83.0007 53.9067L81.1415 55.7658C81.0099 55.9071 80.8512 56.0203 80.6749 56.0989C80.4986 56.1775 80.3082 56.2197 80.1152 56.2231C79.9222 56.2265 79.7305 56.191 79.5515 56.1187C79.3725 56.0464 79.2099 55.9388 79.0734 55.8023C78.9369 55.6658 78.8293 55.5032 78.757 55.3242C78.6847 55.1452 78.6492 54.9535 78.6526 54.7605C78.656 54.5675 78.6982 54.3771 78.7768 54.2008C78.8554 54.0245 78.9686 53.8658 79.1099 53.7342L80.969 51.875L79.1099 50.0158C78.8407 49.7463 78.6895 49.3809 78.6895 49C78.6895 48.6191 78.8407 48.2537 79.1099 47.9842Z" fill="#898989"/>
<path d="M62.5098 92.8105H61.7383V84.1094H62.5098V92.8105ZM57.8906 84.7832C58.3203 84.7865 58.7028 84.9134 59.0381 85.1641C59.3734 85.4115 59.6354 85.763 59.8242 86.2188C60.013 86.6745 60.1074 87.2051 60.1074 87.8105C60.1074 88.416 60.013 88.9466 59.8242 89.4023C59.6354 89.8581 59.3734 90.2096 59.0381 90.457C58.7028 90.7044 58.3203 90.8281 57.8906 90.8281C57.4609 90.8281 57.0768 90.7044 56.7383 90.457C56.403 90.2096 56.141 89.8581 55.9521 89.4023C55.7666 88.9466 55.6738 88.416 55.6738 87.8105C55.6738 87.2051 55.7666 86.6745 55.9521 86.2188C56.141 85.763 56.403 85.4115 56.7383 85.1641C57.0736 84.9134 57.4577 84.7865 57.8906 84.7832ZM57.8906 85.4668C57.6009 85.4701 57.3438 85.5693 57.1191 85.7646C56.8978 85.9567 56.7253 86.2301 56.6016 86.585C56.4779 86.9365 56.416 87.3451 56.416 87.8105C56.416 88.276 56.4779 88.6862 56.6016 89.041C56.7253 89.3926 56.8994 89.6644 57.124 89.8564C57.3486 90.0485 57.6042 90.1445 57.8906 90.1445C58.1771 90.1445 58.4326 90.0485 58.6572 89.8564C58.8818 89.6644 59.056 89.3926 59.1797 89.041C59.3034 88.6862 59.3652 88.276 59.3652 87.8105C59.3652 87.3451 59.3034 86.9365 59.1797 86.585C59.056 86.2301 58.8818 85.9567 58.6572 85.7646C58.4359 85.5693 58.1803 85.4701 57.8906 85.4668ZM68.5156 90.6133H64.502V84.9688H68.5156V90.6133ZM65.2539 89.9883H67.7637V85.584H65.2539V89.9883ZM71.1523 92.8105H70.3809V84.1094H71.1523V92.8105ZM75.7422 86.7754C75.7422 87.2539 75.848 87.7308 76.0596 88.2061C76.2712 88.6781 76.556 89.0996 76.9141 89.4707C77.2754 89.8385 77.6693 90.1152 78.0957 90.3008L77.666 90.9062C77.1549 90.6719 76.6943 90.3187 76.2842 89.8467C75.874 89.3714 75.568 88.8359 75.3662 88.2402C75.1644 88.8783 74.8584 89.4561 74.4482 89.9736C74.0413 90.488 73.5905 90.8704 73.0957 91.1211L72.6367 90.5156C73.0469 90.3171 73.4294 90.0176 73.7842 89.6172C74.1423 89.2168 74.4287 88.766 74.6436 88.2646C74.8584 87.7601 74.9674 87.2637 74.9707 86.7754V85.6426H72.9199V85.0078H77.8125V85.6426H75.7422V86.7754ZM79.7949 92.791H79.0234V84.1094H79.7949V92.791ZM87.998 87.6445H89.4043V88.2891H87.998V92.791H87.2363V84.1094H87.998V87.6445ZM85.752 85.0469C85.752 86.3392 85.4281 87.5111 84.7803 88.5625C84.1325 89.6107 83.1283 90.4701 81.7676 91.1406L81.3379 90.5352C82.4544 89.9785 83.3187 89.2917 83.9307 88.4746C84.5426 87.6543 84.8926 86.7266 84.9805 85.6914H81.7383V85.0469H85.752ZM94.1602 90.291H95.7422V89.207H96.4551V92.6738H93.4375V89.207H94.1602V90.291ZM95.7422 92.0684V90.877H94.1602V92.0684H95.7422ZM98.9355 89.8906C98.9323 90.2031 98.9909 90.5091 99.1113 90.8086C99.235 91.1048 99.4173 91.3717 99.6582 91.6094C99.9023 91.847 100.195 92.0293 100.537 92.1562L100.137 92.7422C99.7493 92.5859 99.4206 92.3646 99.1504 92.0781C98.8835 91.7917 98.6816 91.4613 98.5449 91.0869C98.4017 91.4548 98.1966 91.7819 97.9297 92.0684C97.6628 92.3581 97.3438 92.5827 96.9727 92.7422L96.5723 92.1562C96.9108 92.0163 97.2005 91.8258 97.4414 91.585C97.6823 91.3441 97.8646 91.0771 97.9883 90.7842C98.112 90.488 98.1738 90.1901 98.1738 89.8906V89.1484H98.9355V89.8906ZM94.8242 84.5C95.2083 84.5 95.5583 84.5684 95.874 84.7051C96.1898 84.8418 96.4486 85.0371 96.6504 85.291C96.8555 85.5417 96.9857 85.8314 97.041 86.1602H98.8574V84.1094H99.6289V88.709H98.8574V86.7949H97.0459C96.9971 87.1335 96.8701 87.4313 96.665 87.6885C96.4632 87.9456 96.2028 88.1442 95.8838 88.2842C95.5648 88.4242 95.2116 88.4941 94.8242 88.4941C94.388 88.4941 93.999 88.4111 93.6572 88.2451C93.3154 88.0758 93.0485 87.8398 92.8564 87.5371C92.6644 87.2311 92.5684 86.8828 92.5684 86.4922C92.5684 86.1048 92.6644 85.7598 92.8564 85.457C93.0485 85.1543 93.3154 84.9199 93.6572 84.7539C93.999 84.5846 94.388 84.5 94.8242 84.5ZM94.8242 85.1445C94.5312 85.1445 94.2692 85.2015 94.0381 85.3154C93.807 85.4294 93.6263 85.5889 93.4961 85.7939C93.3659 85.999 93.3008 86.2318 93.3008 86.4922C93.3008 86.7559 93.3659 86.9919 93.4961 87.2002C93.6263 87.4053 93.807 87.5664 94.0381 87.6836C94.2692 87.8008 94.5312 87.8594 94.8242 87.8594C95.1139 87.8594 95.3727 87.8008 95.6006 87.6836C95.8285 87.5664 96.0059 87.4053 96.1328 87.2002C96.263 86.9919 96.3281 86.7559 96.3281 86.4922C96.3281 86.2318 96.263 85.999 96.1328 85.7939C96.0059 85.5889 95.8285 85.4294 95.6006 85.3154C95.3727 85.2015 95.1139 85.1445 94.8242 85.1445ZM105.029 84.3047C105.658 84.3047 106.201 84.3698 106.66 84.5C107.122 84.6302 107.477 84.819 107.725 85.0664C107.972 85.3138 108.096 85.61 108.096 85.9551C108.096 86.2936 107.972 86.585 107.725 86.8291C107.477 87.07 107.122 87.2555 106.66 87.3857C106.201 87.5127 105.658 87.5762 105.029 87.5762C104.401 87.5762 103.856 87.5127 103.394 87.3857C102.931 87.2555 102.575 87.07 102.324 86.8291C102.077 86.585 101.953 86.2936 101.953 85.9551C101.953 85.61 102.077 85.3138 102.324 85.0664C102.575 84.819 102.931 84.6302 103.394 84.5C103.856 84.3698 104.401 84.3047 105.029 84.3047ZM105.029 84.9199C104.564 84.9199 104.159 84.9622 103.813 85.0469C103.468 85.1283 103.203 85.2471 103.018 85.4033C102.832 85.5596 102.741 85.7435 102.744 85.9551C102.741 86.1634 102.83 86.3441 103.013 86.4971C103.198 86.6468 103.464 86.7624 103.809 86.8438C104.154 86.9251 104.561 86.9674 105.029 86.9707C105.492 86.9674 105.894 86.9251 106.235 86.8438C106.58 86.7624 106.846 86.6468 107.031 86.4971C107.22 86.3441 107.314 86.1634 107.314 85.9551C107.314 85.7435 107.22 85.5596 107.031 85.4033C106.846 85.2471 106.58 85.1283 106.235 85.0469C105.89 84.9622 105.488 84.9199 105.029 84.9199ZM108.018 92.6738H102.041V89.8223H108.018V92.6738ZM102.803 92.0488H107.266V90.4375H102.803V92.0488ZM108.984 88.9629H101.074V88.3281H108.984V88.9629Z" fill="#898989"/>
</svg>
